<?xml version="1.0" encoding="UTF-8"?>
<!-- Lucide icons (ISC License) — trimmed to only the icons this site uses -->
<svg xmlns="http://www.w3.org/2000/svg" style="display:none">
  <defs>
    <symbol id="arrow-up" viewBox="0 0 24 24">
      <path d="m5 12 7-7 7 7" />
      <path d="M12 19V5" />
    </symbol>
    <symbol id="arrow-up-right" viewBox="0 0 24 24">
      <path d="M7 7h10v10" />
      <path d="M7 17 17 7" />
    </symbol>
    <symbol id="bell" viewBox="0 0 24 24">
      <path d="M10.268 21a2 2 0 0 0 3.464 0" />
      <path d="M3.262 15.326A1 1 0 0 0 4 17h16a1 1 0 0 0 .74-1.673C19.41 13.956 18 12.499 18 8A6 6 0 0 0 6 8c0 4.499-1.411 5.956-2.738 7.326" />
    </symbol>
    <symbol id="boxes" viewBox="0 0 24 24">
      <path d="M2.97 12.92A2 2 0 0 0 2 14.63v3.24a2 2 0 0 0 .97 1.71l3 1.8a2 2 0 0 0 2.06 0L12 19v-5.5l-5-3-4.03 2.42Z" />
      <path d="m7 16.5-4.74-2.85" />
      <path d="m7 16.5 5-3" />
      <path d="M7 16.5v5.17" />
      <path d="M12 13.5V19l3.97 2.38a2 2 0 0 0 2.06 0l3-1.8a2 2 0 0 0 .97-1.71v-3.24a2 2 0 0 0-.97-1.71L17 10.5l-5 3Z" />
      <path d="m17 16.5-5-3" />
      <path d="m17 16.5 4.74-2.85" />
      <path d="M17 16.5v5.17" />
      <path d="M7.97 4.42A2 2 0 0 0 7 6.13v4.37l5 3 5-3V6.13a2 2 0 0 0-.97-1.71l-3-1.8a2 2 0 0 0-2.06 0l-3 1.8Z" />
      <path d="M12 8 7.26 5.15" />
      <path d="m12 8 4.74-2.85" />
      <path d="M12 13.5V8" />
    </symbol>
    <symbol id="briefcase" viewBox="0 0 24 24">
      <path d="M16 20V4a2 2 0 0 0-2-2h-4a2 2 0 0 0-2 2v16" />
      <rect width="20" height="14" x="2" y="6" rx="2" />
    </symbol>
    <symbol id="chevrons-right" viewBox="0 0 24 24">
      <path d="m6 17 5-5-5-5" />
      <path d="m13 17 5-5-5-5" />
    </symbol>
    <symbol id="code" viewBox="0 0 24 24">
      <path d="m16 18 6-6-6-6" />
      <path d="m8 6-6 6 6 6" />
    </symbol>
    <symbol id="compass" viewBox="0 0 24 24">
      <circle cx="12" cy="12" r="10" />
      <path d="m16.24 7.76-1.804 5.411a2 2 0 0 1-1.265 1.265L7.76 16.24l1.804-5.411a2 2 0 0 1 1.265-1.265z" />
    </symbol>
    <symbol id="globe" viewBox="0 0 24 24">
      <circle cx="12" cy="12" r="10" />
      <path d="M12 2a14.5 14.5 0 0 0 0 20 14.5 14.5 0 0 0 0-20" />
      <path d="M2 12h20" />
    </symbol>
    <symbol id="layers" viewBox="0 0 24 24">
      <path d="M12.83 2.18a2 2 0 0 0-1.66 0L2.6 6.08a1 1 0 0 0 0 1.83l8.58 3.91a2 2 0 0 0 1.66 0l8.58-3.9a1 1 0 0 0 0-1.83z" />
      <path d="M2 12a1 1 0 0 0 .58.91l8.6 3.91a2 2 0 0 0 1.65 0l8.58-3.9A1 1 0 0 0 22 12" />
      <path d="M2 17a1 1 0 0 0 .58.91l8.6 3.91a2 2 0 0 0 1.65 0l8.58-3.9A1 1 0 0 0 22 17" />
    </symbol>
    <symbol id="layout-dashboard" viewBox="0 0 24 24">
      <rect width="7" height="9" x="3" y="3" rx="1" />
      <rect width="7" height="5" x="14" y="3" rx="1" />
      <rect width="7" height="9" x="14" y="12" rx="1" />
      <rect width="7" height="5" x="3" y="16" rx="1" />
    </symbol>
    <symbol id="list" viewBox="0 0 24 24">
      <path d="M3 5h.01" />
      <path d="M3 12h.01" />
      <path d="M3 19h.01" />
      <path d="M8 5h13" />
      <path d="M8 12h13" />
      <path d="M8 19h13" />
    </symbol>
    <symbol id="mail" viewBox="0 0 24 24">
      <path d="m22 7-8.991 5.727a2 2 0 0 1-2.009 0L2 7" />
      <rect x="2" y="4" width="20" height="16" rx="2" />
    </symbol>
    <symbol id="menu" viewBox="0 0 24 24">
      <path d="M4 5h16" />
      <path d="M4 12h16" />
      <path d="M4 19h16" />
    </symbol>
    <symbol id="moon" viewBox="0 0 24 24">
      <path d="M20.985 12.486a9 9 0 1 1-9.473-9.472c.405-.022.617.46.402.803a6 6 0 0 0 8.268 8.268c.344-.215.825-.004.803.401" />
    </symbol>
    <symbol id="network" viewBox="0 0 24 24">
      <rect x="16" y="16" width="6" height="6" rx="1" />
      <rect x="2" y="16" width="6" height="6" rx="1" />
      <rect x="9" y="2" width="6" height="6" rx="1" />
      <path d="M5 16v-3a1 1 0 0 1 1-1h12a1 1 0 0 1 1 1v3" />
      <path d="M12 12V8" />
    </symbol>
    <symbol id="rocket" viewBox="0 0 24 24">
      <path d="M12 15v5s3.03-.55 4-2c1.08-1.62 0-5 0-5" />
      <path d="M4.5 16.5c-1.5 1.26-2 5-2 5s3.74-.5 5-2c.71-.84.7-2.13-.09-2.91a2.18 2.18 0 0 0-2.91-.09" />
      <path d="M9 12a22 22 0 0 1 2-3.95A12.88 12.88 0 0 1 22 2c0 2.72-.78 7.5-6 11a22.4 22.4 0 0 1-4 2z" />
      <path d="M9 12H4s.55-3.03 2-4c1.62-1.08 5 .05 5 .05" />
    </symbol>
    <symbol id="search" viewBox="0 0 24 24">
      <path d="m21 21-4.34-4.34" />
      <circle cx="11" cy="11" r="8" />
    </symbol>
    <symbol id="shield-check" viewBox="0 0 24 24">
      <path d="M20 13c0 5-3.5 7.5-7.66 8.95a1 1 0 0 1-.67-.01C7.5 20.5 4 18 4 13V6a1 1 0 0 1 1-1c2 0 4.5-1.2 6.24-2.72a1.17 1.17 0 0 1 1.52 0C14.51 3.81 17 5 19 5a1 1 0 0 1 1 1z" />
      <path d="m9 12 2 2 4-4" />
    </symbol>
    <symbol id="sparkles" viewBox="0 0 24 24">
      <path d="M11.017 2.814a1 1 0 0 1 1.966 0l1.051 5.558a2 2 0 0 0 1.594 1.594l5.558 1.051a1 1 0 0 1 0 1.966l-5.558 1.051a2 2 0 0 0-1.594 1.594l-1.051 5.558a1 1 0 0 1-1.966 0l-1.051-5.558a2 2 0 0 0-1.594-1.594l-5.558-1.051a1 1 0 0 1 0-1.966l5.558-1.051a2 2 0 0 0 1.594-1.594z" />
      <path d="M20 2v4" />
      <path d="M22 4h-4" />
      <circle cx="4" cy="20" r="2" />
    </symbol>
    <symbol id="sun" viewBox="0 0 24 24">
      <circle cx="12" cy="12" r="4" />
      <path d="M12 2v2" />
      <path d="M12 20v2" />
      <path d="m4.93 4.93 1.41 1.41" />
      <path d="m17.66 17.66 1.41 1.41" />
      <path d="M2 12h2" />
      <path d="M20 12h2" />
      <path d="m6.34 17.66-1.41 1.41" />
      <path d="m19.07 4.93-1.41 1.41" />
    </symbol>
    <symbol id="trending-up" viewBox="0 0 24 24">
      <path d="M16 7h6v6" />
      <path d="m22 7-8.5 8.5-5-5L2 17" />
    </symbol>
    <symbol id="x" viewBox="0 0 24 24">
      <path d="M18 6 6 18" />
      <path d="m6 6 12 12" />
    </symbol>
  </defs>
</svg>
